PathFileType	4	(X/Y/Z)	Kaydara	
DataRate	CameraRate	NumFrames	NumMarkers	Units	OrigDataRate	OrigDataStartFrame	OrigNumFrames	
240.00	240.00	4	72	mm	240.00	89	355	
Frame#	Time	Hips			RightUpLeg			RightLeg			RightFoot			RightFoot_End			LeftUpLeg			LeftLeg			LeftFoot			LeftFoot_End			Spine			Spine1			Spine2			Spine3			Neck			Head			Head_End			RightShoulder			RightArm			RightForeArm			RightHand			RightHandThumb1			RightHandThumb2			RightHandThumb3			RightHandThumb3_End			RightInHandIndex			RightHandIndex1			RightHandIndex2			RightHandIndex3			RightHandIndex3_End			RightInHandMiddle			RightHandMiddle1			RightHandMiddle2			RightHandMiddle3			RightHandMiddle3_End			RightInHandRing			RightHandRing1			RightHandRing2			RightHandRing3			RightHandRing3_End			RightInHandPinky			RightHandPinky1			RightHandPinky2			RightHandPinky3			RightHandPinky3_End			LeftShoulder			LeftArm			LeftForeArm			LeftHand			LeftHandThumb1			LeftHandThumb2			LeftHandThumb3			LeftHandThumb3_End			LeftInHandIndex			LeftHandIndex1			LeftHandIndex2			LeftHandIndex3			LeftHandIndex3_End			LeftInHandMiddle			LeftHandMiddle1			LeftHandMiddle2			LeftHandMiddle3			LeftHandMiddle3_End			LeftInHandRing			LeftHandRing1			LeftHandRing2			LeftHandRing3			LeftHandRing3_End			LeftInHandPinky			LeftHandPinky1			LeftHandPinky2			LeftHandPinky3			LeftHandPinky3_End			
		X1	Y1	Z1	X2	Y2	Z2	X3	Y3	Z3	X4	Y4	Z4	X5	Y5	Z5	X6	Y6	Z6	X7	Y7	Z7	X8	Y8	Z8	X9	Y9	Z9	X10	Y10	Z10	X11	Y11	Z11	X12	Y12	Z12	X13	Y13	Z13	X14	Y14	Z14	X15	Y15	Z15	X16	Y16	Z16	X17	Y17	Z17	X18	Y18	Z18	X19	Y19	Z19	X20	Y20	Z20	X21	Y21	Z21	X22	Y22	Z22	X23	Y23	Z23	X24	Y24	Z24	X25	Y25	Z25	X26	Y26	Z26	X27	Y27	Z27	X28	Y28	Z28	X29	Y29	Z29	X30	Y30	Z30	X31	Y31	Z31	X32	Y32	Z32	X33	Y33	Z33	X34	Y34	Z34	X35	Y35	Z35	X36	Y36	Z36	X37	Y37	Z37	X38	Y38	Z38	X39	Y39	Z39	X40	Y40	Z40	X41	Y41	Z41	X42	Y42	Z42	X43	Y43	Z43	X44	Y44	Z44	X45	Y45	Z45	X46	Y46	Z46	X47	Y47	Z47	X48	Y48	Z48	X49	Y49	Z49	X50	Y50	Z50	X51	Y51	Z51	X52	Y52	Z52	X53	Y53	Z53	X54	Y54	Z54	X55	Y55	Z55	X56	Y56	Z56	X57	Y57	Z57	X58	Y58	Z58	X59	Y59	Z59	X60	Y60	Z60	X61	Y61	Z61	X62	Y62	Z62	X63	Y63	Z63	X64	Y64	Z64	X65	Y65	Z65	X66	Y66	Z66	X67	Y67	Z67	X68	Y68	Z68	X69	Y69	Z69	X70	Y70	Z70	X71	Y71	Z71	X72	Y72	Z72	

89	0.367	7921.0129	906.651	56.2195	7997.971528782182	891.0898095334961	1.839688281329459	7916.9295528761395	489.9911651831736	-87.17958422987526	7904.506214398883	106.45077981896422	-161.6603593522421	7829.522594003327	30.883521965508695	-2.9032522228915276	7852.964343325842	893.767194912196	122.20034013494302	7788.766750211055	490.52204196916045	216.10932730352215	7746.869779454715	59.11561188816402	296.90012358240114	7613.771025487961	-15.451585996915718	181.4927715865443	7878.763767306255	1033.6246299164136	5.677344561733638	7829.916965366208	1100.2021451874734	-45.024459738158235	7774.3885198806765	1163.7219685511568	-100.37223131475541	7714.8444986966015	1214.8564897599606	-157.49868428190175	7650.766674378626	1269.705960211385	-217.85439231257786	7591.147276745074	1319.4682034562388	-271.9452448325943	7472.844067486047	1413.6215325756827	-323.2812077076195	7694.553538984135	1253.1674994638595	-219.48864516189883	7754.691563434266	1245.3587257899433	-331.1797235809257	7764.617777812153	975.532443523923	-324.22363515012677	7814.302845846435	755.1926657492158	-397.0340556237787	7818.452719974856	741.9677936135541	-410.06451188921443	7808.31977409158	731.6766784611367	-422.69773383956795	7801.699284456441	722.7052705087698	-430.4271602643749	7796.55313328396	713.6823469490572	-435.9568993645654	7822.093382402474	733.094551135846	-407.32534596145285	7828.268432655243	697.7851645027242	-419.54544462309156	7823.502956495534	679.5730052401719	-428.60996084782676	7814.731324850322	675.9513137717078	-434.4750785899794	7803.552743038971	678.148069926487	-439.4845810794088	7822.633793614284	729.7173865338588	-404.0209134672786	7828.95164760655	693.4491490662409	-414.1525004888557	7823.791521028106	673.2529245600181	-423.5687428610097	7813.228027704286	668.7284472007856	-430.4168752466127	7801.005942545859	671.0567331103576	-435.7873792443289	7822.954118045473	728.1490599039477	-401.3642503807125	7829.175412365432	694.0400497948696	-408.10802851004075	7824.707648493127	676.1647491821252	-415.8139588411745	7814.534143690282	671.655999767757	-422.15330798587837	7803.0497947392005	673.7766919188962	-427.0767774436315	7822.387357779137	728.0214195542785	-398.02896838793095	7828.068549019519	696.3668995422621	-402.12770809735616	7824.509610062295	681.7777267841825	-407.48691130705464	7817.0980506106725	678.355857483775	-411.7183481674497	7806.929983889382	680.1578067613482	-415.8538468115982	7648.876315018553	1250.39560363818	-174.6185513903819	7584.427246859883	1190.1520754940084	-79.80732575469477	7694.118145461972	1005.537776189246	-206.39401243249188	7841.129709510642	829.8492980464108	-326.16980358709674	7826.788159056542	823.8777800016074	-347.0524996443328	7821.635129238981	805.6256020691058	-380.17971514746716	7818.342375073536	790.7353671417673	-403.20009997542167	7815.850413642325	776.4575906702885	-422.3489323713217	7825.435041136896	815.8842787212368	-347.89992055543473	7807.3007109417695	784.8682323343702	-384.7879014120318	7800.544575200051	761.3237945040961	-415.21986656870337	7800.729004365668	749.7922638958572	-433.93091057780555	7803.8392834999	742.3427388560617	-449.27739714804096	7827.149503552897	810.9429819446735	-346.7079429096287	7810.387501157009	778.0186741598827	-382.0412716220418	7803.3075765207695	751.7731724128727	-414.9776151114731	7803.67039357476	737.5950463947737	-437.42176144335383	7807.1418157472435	729.3147242096335	-454.15038002707945	7828.762313859036	808.2429239722951	-344.88315720495075	7814.961158280018	776.3908190823772	-374.8439014487297	7809.116188306004	753.0009576176978	-403.2191431954265	7809.63924500092	739.051976965771	-424.691886008096	7812.985288865434	731.1369978085716	-440.3373989800383	7831.628756263933	806.0335737448175	-342.0369013116108	7820.5263073999195	775.4452166616585	-367.63523626991935	7816.414985110368	756.0522058243145	-389.70845891554075	7817.0718014975555	745.5569124557436	-405.0570081757429	7820.194289429	738.3608762644785	-418.73581615058845
90	0.371	7921.0129	906.651	56.2195	7997.763458433829	891.001849016521	1.7757491204525597	7916.748174737547	489.8730196568228	-87.09358099322483	7904.7216066659885	106.42457521358418	-161.73301533992802	7829.742352332313	30.83849313015808	-2.9832688938123852	7853.161123492721	893.8516718252893	122.26380789268855	7789.018555503384	490.6108444301446	216.2176938345384	7746.992162748672	59.207707150063065	296.8789967699329	7613.939885054665	-15.410430675930723	181.45910007554738	7878.819459338276	1033.6432221340815	5.682438583167084	7829.989065652306	1100.2548493125728	-44.98981026544391	7774.473518770952	1163.81300082453	-100.30338746317267	7714.933453549373	1214.985060402455	-157.39199567957408	7650.858295876	1269.8719489719774	-217.7072487420217	7591.241940488839	1319.668211970847	-271.7603707344082	7472.908550281569	1413.7936420515423	-323.06380176708905	7694.592611322143	1253.2846469121873	-219.35007567646093	7754.625449838211	1245.4647765351795	-330.94270815495355	7764.481757679371	975.9235354774527	-323.8998764806562	7813.892103167455	756.1942385541302	-396.9280470089735	7818.0712087160855	743.1271981601099	-409.9937805783322	7807.954002467253	732.902984468903	-422.6548282963171	7801.337548323918	723.9685405390476	-430.4067635148018	7796.188836726906	714.9681973313616	-435.9579456535785	7821.68915632326	734.2426769928718	-407.27160786071977	7827.850948922354	699.0836738404688	-419.5722331016598	7823.079293707301	680.9294403389441	-428.6792575196552	7814.3121632823195	677.3142852805942	-434.55457672508965	7803.142934555301	679.4965691181175	-439.5615781137396	7822.211337349809	730.8318755765332	-403.97224506936533	7828.506398639957	694.6921367898624	-414.18512136546593	7823.337170857068	674.5541363606271	-423.6481394535595	7812.77797628113	670.0351529541972	-430.50876703772457	7800.565574889633	672.3464406653259	-435.8766255197255	7822.519041628695	729.2363884371937	-401.317282699151	7828.708723221647	695.2202531089494	-408.1358973056724	7824.230652741924	677.3903988037382	-415.8828669738797	7814.06003373578	672.8841329877652	-422.23441177554594	7802.58419256095	674.9875082003194	-427.15546156144245	7821.938741170063	729.0696097328324	-397.98025818744287	7827.582321073585	697.4776751350953	-402.1471726531967	7824.011563771706	682.9162140701337	-407.5393313629394	7816.600384613498	679.4919574946845	-411.77970862941623	7806.4388618695	681.2761503105855	-415.9130896454168	7649.02169377413	1250.586409975127	-174.49147092777775	7584.741944257178	1190.5351841259478	-79.70791560104261	7694.170597298473	1005.9151051348496	-206.16021449211962	7840.614235425869	830.4234341560962	-325.8150758911182	7826.28425565969	824.5501187037851	-346.6820509493401	7821.128865097465	806.3418040763828	-379.7394591689943	7817.8324611811795	791.4769195172105	-402.7052021774192	7815.3357412656815	777.2158314801894	-421.80332521859214	7824.925928465273	816.5524993755779	-347.5095126902258	7806.789899894225	785.6371544057661	-384.3072118665983	7800.027672691604	762.1334247942689	-414.6598332616524	7800.207385555342	750.6074997732749	-433.32439919531316	7803.313134216682	743.149324374852	-448.63433824339234	7826.634761366076	811.5921692246911	-346.3034970348033	7809.868058830478	778.7557957730462	-381.5411792589776	7802.780743772964	752.5518400589092	-414.38936284970055	7803.137514043176	738.3790974056418	-436.7766768807627	7806.603805631738	730.0886394858392	-453.46493725644405	7828.243674174452	808.8763787141788	-344.4712076626284	7814.435029507515	777.0902553442006	-374.3400426514814	7808.582865171137	753.7335255651884	-402.6369784113365	7809.099689463343	739.7881018813514	-424.0541237202203	7812.44071981514	731.8628174373099	-439.66132102508175	7831.1053869287125	806.6437388880694	-341.61804973037187	7819.99327493048	776.1025281870527	-367.12817206835746	7815.875049501811	756.7309529826285	-389.1368038689154	7816.526767471017	746.2357894569693	-404.443887602455	7819.644496274196	739.0292060400328	-418.08822898777765
91	0.375	7921.0129	906.651	56.2195	7997.552824582006	890.9128556093696	1.711054707697647	7916.564729164871	489.75358769954806	-87.00722508226691	7904.938336385645	106.39799717683508	-161.8068263498576	7829.9635622288415	30.792942675532686	-3.064461215452585	7853.360403081294	893.9371807936001	122.32806371909044	7789.27319374702	490.7008225075001	216.32753522158183	7747.115435158812	59.3010395122185	296.8576565491678	7614.110170458525	-15.368597066653438	181.4250594552093	7878.875503725545	1033.6618531857787	5.6874229225805015	7830.061316079537	1100.307690106175	-44.954879099846515	7774.558401331032	1163.9043064897062	-100.23371697718602	7715.021950793469	1215.1141084227038	-157.2837197220317	7650.9490946682645	1270.0386175637175	-217.55770706246824	7591.335487363227	1319.8691149904023	-271.57234350985414	7472.971759495299	1413.9667442007085	-322.8424534194819	7694.629985168199	1253.4016733760277	-219.20933656400248	7754.55374486798	1245.5678975120597	-330.70096778903707	7764.340166950564	976.3165838248949	-323.56514575011425	7813.472702298307	757.2024273005326	-396.80234122189586	7817.68103701758	744.2937381133845	-409.9029364559805	7807.580004327262	734.1364350368664	-422.5907316346326	7800.967856304	725.238973506668	-430.3643416538954	7795.81678289795	716.2612362390578	-435.9362005121682	7821.2761003873175	735.39809505932	-407.19745157089994	7827.424498871708	700.3902670757639	-419.5770612600003	7822.646869242608	682.2941571086832	-428.72535776336974	7813.884568011373	678.6853963546034	-434.6102078314936	7802.725099242972	680.8529114616306	-439.61421909139847	7821.77998439066	731.953645132239	-403.9029785038277	7828.052083640534	695.9431709893498	-414.195542622129	7822.873969955261	675.8636058949614	-423.7039686373375	7812.319465975637	671.349942810504	-430.576273272402	7800.117191678909	673.6439069307276	-435.9409467333765	7822.075021502877	730.3309728392333	-401.2496298525249	7828.232888212385	696.4083885368448	-408.1415725491834	7823.744690907311	678.6241587698989	-415.9283725316171	7813.5773314846765	674.1202059364141	-422.29131487217387	7802.110412944349	676.205956773564	-427.2094334744543	7821.481156422802	730.1249743320402	-397.9108008912095	7827.0869134770155	698.5962082644035	-402.1444706515955	7823.504470411619	684.0625894272921	-407.56859700003764	7816.093938682701	680.6358152342252	-411.81732298245583	7805.939324244446	682.4019758569827	-415.9481277639378	7649.167423957381	1250.778584414263	-174.3623371537666	7585.0609511089015	1190.9235371860725	-79.6065934919631	7694.225252236898	1006.2958390321056	-205.9184828641849	7840.09293252867	831.0008296873153	-325.44465091427844	7825.774852285246	825.2261902907399	-346.29483741212647	7820.617385305911	807.0621542501008	-379.2809890399222	7817.3176282461	792.2228772309185	-402.1911084781557	7814.816481465994	777.9786646202099	-421.2377272878507	7824.411745433828	817.2243846439507	-347.1023703101542	7806.2753441665955	786.4102280726962	-383.80817690048866	7799.507702400106	762.9475289583709	-414.08017580164153	7799.682801765471	751.4273890697917	-432.6974846709009	7802.7838905278895	743.9606978817587	-447.97024221931355	7826.115159182417	812.2449162618071	-345.88244014371935	7809.345163390839	779.4968954178782	-381.02297149599855	7802.251219691465	753.3348219704556	-413.781621160368	7802.602078314626	739.1676718892991	-436.11117330175614	7806.063103103541	730.8672218766416	-452.75838675775395	7827.720292687955	809.5133067608637	-344.0427769244142	7813.905532338688	777.7934648859994	-373.81847139768195	7808.046859016679	754.4701434183667	-402.0359277126631	7808.557592623862	740.5284697706313	-423.39659168039566	7811.893486772193	732.5930109627199	-438.96483183320476	7830.57734680646	807.2572631440154	-341.18290174014726	7819.456886979673	776.7634039074741	-366.6038004548819	7815.332334618742	757.4134588955102	-388.54694478338246	7815.979070785389	746.9185529996971	-403.81193913298404	7819.091939399434	739.70153083025	-417.421257658037
92	0.379	7921.0129	906.651	56.2195	7997.33963732543	890.822833700057	1.6456083957581678	7916.379225641608	489.63287519014926	-86.92052115280276	7905.156392033921	106.37104698606953	-161.88178901180547	7830.186212055363	30.74687289132447	-3.146825365474686	7853.562172592709	894.0237176331958	122.39310432317593	7789.53065234453	490.7919719229498	216.43884616528638	7747.2395902804265	59.395604593831145	296.83610420792576	7614.281873000846	-15.32608697381222	181.3906516090764	7878.931897535522	1033.6805220092579	5.692297152759666	7830.133712620624	1100.3606646316784	-44.91966803291767	7774.643162593852	1163.9958805332142	-100.16322313897322	7715.1099849881975	1215.2436268524605	-157.17386119138854	7651.039064898696	1270.2059570770882	-217.40577365696856	7591.427911137485	1320.070901877057	-271.3811710331836	7473.033690578643	1414.1408302251946	-322.6171715895536	7694.665656928903	1253.5185721405646	-219.06643381405678	7754.476447404492	1245.6680802620958	-330.4545114248342	7764.193010777584	976.7115687414534	-323.21945019381417	7813.044663123894	758.2171813800101	-396.6569211950233	7817.282223648363	745.467353881245	-409.7919599952982	7807.197798290593	735.376966410767	-422.50542169337467	7800.590227224617	726.5165033745935	-430.2998703598161	7795.436991067338	717.5613962587953	-435.8916375381684	7820.854234378025	736.5607466887774	-407.10285602603204	7826.989103323604	701.7048774554177	-419.55990133589495	7822.2057046797745	683.667085490308	-428.7482299268836	7813.448560771278	680.0645762889061	-434.64193904678064	7802.299258751465	682.2170266684795	-439.64247096302756	7821.339755338332	733.0826386224234	-403.81309208719796	7827.588724663664	697.2021882968826	-414.1837357098206	7822.401941309849	677.1812664898792	-423.7361975599031	7811.852520012759	672.6727494624486	-430.61935960978184	7799.660816070788	674.9490651252634	-435.98030832615126	7821.6220788229375	731.4327581780251	-401.1612698806922	7827.747930281467	697.6043964289364	-408.125025854335	7823.249786849885	679.8659668697309	-415.95044332812233	7813.086061082495	675.3641559609416	-422.32398362769715	7801.628479997456	677.4319755608524	-427.23865931700857	7821.0146252852355	731.187460720242	-397.8205745030952	7826.5823499906755	699.7224433156649	-402.11957414022413	7822.988354632437	685.2167957096343	-407.57467717452704	7815.578737751696	681.7873734853398	-411.83115909300585	7805.431395957716	683.5352268374392	-415.95892882732386	7649.313497597004	1250.9721171066974	-174.23115571362376	7585.38425306358	1191.3171170084388	-79.5033643034952	7694.282112186355	1006.6799593850685	-205.6688233560486	7839.565829761289	831.5814554573593	-325.05853144314904	7825.259977841832	825.9059605465129	-345.89086216362745	7820.100719881871	807.7866165126557	-378.8043106684142	7816.797907297028	792.9732031712866	-401.65782707972704	7814.292666319366	778.746052341262	-420.6521490014074	7823.892521772655	817.8999004665842	-346.67849775395007	7805.7570757174935	787.187414193489	-383.2908050525102	7798.9846980055145	763.7660660426204	-413.4809062584312	7799.155287472216	752.2518908321094	-432.05018098425666	7802.251587383912	744.7768191841299	-447.28512444391794	7825.590727312381	812.9011899689107	-345.4447774366187	7808.818847636061	780.2419355761554	-380.48665809579364	7801.719039022134	754.1220787988937	-413.15440375994683	7802.064122128942	739.9607305682451	-435.42526677543754	7805.519744437602	731.6504329711152	-452.03074614281894	7827.192200063446	810.1536758253005	-343.5978706890417	7813.372699974355	778.5004120949069	-373.27919789891797	7807.508204808413	755.210774126382	-401.4160048530067	7808.012990442698	741.2730437349492	-422.7193059624398	7811.343626216862	733.32754234055	-438.2479489528855	7830.044666901709	807.8741154273333	-340.73146351605556	7818.917177090516	777.4278103700094	-366.06213202879826	7814.786875511238	758.0996892187459	-387.93889522448757	7815.428747261443	747.60516897658	-403.1611780881025	7818.536655112258	740.3778173570854	-416.73491882461946
